<svg preserveAspectRatio="none" overflow="visible" style="display: block;" width="28.061" height="28.061" viewBox="0 0 28.061 28.061" fill="none" xmlns="http://www.w3.org/2000/svg">
<g id="Component 13">
<path id="Vector" d="M12.2767 11.6921H16.9535M14.6151 9.35366V14.0305M4.33776 6.31372H22.1261C23.7372 6.31372 24.9006 7.79861 24.4586 9.29286L22.5248 15.8404C22.2266 16.8459 21.2749 17.5381 20.1922 17.5381H9.48461C8.40076 17.5381 7.44785 16.8448 7.15087 15.8404L4.33776 6.31372ZM4.33776 6.31372L3.50762 3.50762M19.2919 24.5534C19.7571 24.5534 20.2031 24.3686 20.5321 24.0397C20.861 23.7108 21.0457 23.2647 21.0457 22.7995C21.0457 22.3344 20.861 21.8883 20.5321 21.5594C20.2031 21.2305 19.7571 21.0457 19.2919 21.0457C18.8268 21.0457 18.3807 21.2305 18.0518 21.5594C17.7229 21.8883 17.5381 22.3344 17.5381 22.7995C17.5381 23.2647 17.7229 23.7108 18.0518 24.0397C18.3807 24.3686 18.8268 24.5534 19.2919 24.5534ZM9.93826 24.5534C10.4034 24.5534 10.8495 24.3686 11.1784 24.0397C11.5073 23.7108 11.6921 23.2647 11.6921 22.7995C11.6921 22.3344 11.5073 21.8883 11.1784 21.5594C10.8495 21.2305 10.4034 21.0457 9.93826 21.0457C9.47312 21.0457 9.02703 21.2305 8.69813 21.5594C8.36923 21.8883 8.18445 22.3344 8.18445 22.7995C8.18445 23.2647 8.36923 23.7108 8.69813 24.0397C9.02703 24.3686 9.47312 24.5534 9.93826 24.5534Z" stroke="#0159ED" stroke-width="1.75381" stroke-linecap="round" stroke-linejoin="round"/>
</g>
</svg>
